{
	"asset": {
		"generator": "SOLIDWORKSGLTF",
		"version" : "2.0"
	},
"extensionsUsed": [ "KHR_lights_punctual", "Solidworks_custom_properties" ],
	"scene" : 0,
	"scenes": [
		{
			"name": "Predeterminado<Como mecanizada> - <Predeterminado>_Estado de visualizacion 1",
			"nodes": [
				0],
			"extensions": {
				"Solidworks_custom_properties": { 
					"custom_properties": [
						{ "name": "Part Number", "value": " ", "type": "Text" },
						{ "name": "Description", "value": "", "type": "Text" },
						{ "name": "Description 2", "value": "", "type": "Text" },
						{ "name": "Description 3", "value": "", "type": "Text" },
						{ "name": "Document Number", "value": "", "type": "Text" },
						{ "name": "Project", "value": "", "type": "Text" },
						{ "name": "Weight", "value": "", "type": "Text" },
						{ "name": "Material", "value": "", "type": "Text" },
						{ "name": "Cantidad", "value": "", "type": "Text" },
						{ "name": "Tratamiento", "value": "", "type": "Text" },
						{ "name": "Acabado", "value": "", "type": "Text" }
					]
				}
			}

		}
		,
		{
			"name": "Predeterminado<Como soldada> - <Predeterminado>_Estado de visualizacion 1",
			"nodes": [
				1],
			"extensions": {
				"Solidworks_custom_properties": { 
					"custom_properties": [
						{ "name": "Part Number", "value": " ", "type": "Text" },
						{ "name": "Description", "value": "", "type": "Text" },
						{ "name": "Description 2", "value": "", "type": "Text" },
						{ "name": "Description 3", "value": "", "type": "Text" },
						{ "name": "Document Number", "value": "", "type": "Text" },
						{ "name": "Project", "value": "", "type": "Text" },
						{ "name": "Weight", "value": "", "type": "Text" },
						{ "name": "Material", "value": "", "type": "Text" },
						{ "name": "Cantidad", "value": "", "type": "Text" },
						{ "name": "Tratamiento", "value": "", "type": "Text" },
						{ "name": "Acabado", "value": "", "type": "Text" }
					]
				}
			}

		}
	],
	"nodes": [
		{
			"mesh": 0
			,"name": "Marco inferior 1.SLDPRT"		}
,
		{
			"mesh": 1
			,"name": "Marco inferior 1.SLDPRT"		}
	],
	"meshes" : [
		{
			"primitives" : [
				{
					"attributes" : {
					"POSITION" : 1,
					"NORMAL" : 2,
					"TEXCOORD_0" : 3
					},
					"indices" : 0,
					"mode": 4,
					"material" : 0
				},
				{
					"attributes" : {
					"POSITION" : 5,
					"NORMAL" : 6,
					"TEXCOORD_0" : 7
					},
					"indices" : 4,
					"mode": 4,
					"material" : 0
				}
			]
		},
		{
			"primitives" : [
				{
					"attributes" : {
					"POSITION" : 9,
					"NORMAL" : 10,
					"TEXCOORD_0" : 11
					},
					"indices" : 8,
					"mode": 4,
					"material" : 0
				},
				{
					"attributes" : {
					"POSITION" : 13,
					"NORMAL" : 14,
					"TEXCOORD_0" : 15
					},
					"indices" : 12,
					"mode": 4,
					"material" : 0
				}
			]
		}
	],
	"accessors" : [
			{
				"bufferView": 3
				,"byteOffset" : 0
				,"componentType" : 5123
				,"count" : 64998
				,"type" : "SCALAR"
			},
			{
				"bufferView": 0
				,"byteOffset" : 0
				,"componentType" : 5126
				,"count" : 64998
				,"type" : "VEC3"
				,"min" : [-3.24000001e-01, -1.04999997e-01, -2.70999998e-01]
				,"max" : [3.24000001e-01, 1.49999997e-02, 2.70999998e-01]
			},
			{
				"bufferView": 1
				,"byteOffset" : 0
				,"componentType" : 5126
				,"count" : 64998
				,"type" : "VEC3"
			},
			{
				"bufferView": 2
				,"byteOffset" : 0
				,"componentType" : 5126
				,"count" : 64998
				,"type" : "VEC2"
			},
			{
				"bufferView": 3
				,"byteOffset" : 129996
				,"componentType" : 5123
				,"count" : 53406
				,"type" : "SCALAR"
			},
			{
				"bufferView": 0
				,"byteOffset" : 779976
				,"componentType" : 5126
				,"count" : 53406
				,"type" : "VEC3"
				,"min" : [-2.31999993e-01, -1.40000001e-01, -2.70999998e-01]
				,"max" : [1.35000005e-01, 1.49999997e-02, 2.70999998e-01]
			},
			{
				"bufferView": 1
				,"byteOffset" : 779976
				,"componentType" : 5126
				,"count" : 53406
				,"type" : "VEC3"
			},
			{
				"bufferView": 2
				,"byteOffset" : 519984
				,"componentType" : 5126
				,"count" : 53406
				,"type" : "VEC2"
			},
			{
				"bufferView": 7
				,"byteOffset" : 0
				,"componentType" : 5123
				,"count" : 64998
				,"type" : "SCALAR"
			},
			{
				"bufferView": 4
				,"byteOffset" : 0
				,"componentType" : 5126
				,"count" : 64998
				,"type" : "VEC3"
				,"min" : [-3.24000001e-01, -1.04999997e-01, -2.70999998e-01]
				,"max" : [3.24000001e-01, 1.49999997e-02, 2.70999998e-01]
			},
			{
				"bufferView": 5
				,"byteOffset" : 0
				,"componentType" : 5126
				,"count" : 64998
				,"type" : "VEC3"
			},
			{
				"bufferView": 6
				,"byteOffset" : 0
				,"componentType" : 5126
				,"count" : 64998
				,"type" : "VEC2"
			},
			{
				"bufferView": 7
				,"byteOffset" : 129996
				,"componentType" : 5123
				,"count" : 53670
				,"type" : "SCALAR"
			},
			{
				"bufferView": 4
				,"byteOffset" : 779976
				,"componentType" : 5126
				,"count" : 53670
				,"type" : "VEC3"
				,"min" : [-2.31999993e-01, -1.40000001e-01, -2.70999998e-01]
				,"max" : [1.35000005e-01, 1.49999997e-02, 2.70999998e-01]
			},
			{
				"bufferView": 5
				,"byteOffset" : 779976
				,"componentType" : 5126
				,"count" : 53670
				,"type" : "VEC3"
			},
			{
				"bufferView": 6
				,"byteOffset" : 519984
				,"componentType" : 5126
				,"count" : 53670
				,"type" : "VEC2"
			}
	],
	"materials": [
			{
				"pbrMetallicRoughness": {
					"baseColorFactor": [
						0.498039, 0.498039, 0.498039, 1
					]
					,"metallicFactor": 0
					,"roughnessFactor": 1
				}
			}
	],
	"bufferViews" : [
			{
				"buffer": 0
				,"byteOffset" : 0
				,"byteLength" : 1420848
				,"byteStride" : 12
				,"target" : 34962
			},
			{
				"buffer": 0
				,"byteOffset" : 1420848
				,"byteLength" : 1420848
				,"byteStride" : 12
				,"target" : 34962
			},
			{
				"buffer": 0
				,"byteOffset" : 2841696
				,"byteLength" : 947232
				,"byteStride" : 8
				,"target" : 34962
			},
			{
				"buffer": 0
				,"byteOffset" : 3788928
				,"byteLength" : 236808
				,"target" : 34963
			},
			{
				"buffer": 1
				,"byteOffset" : 0
				,"byteLength" : 1424016
				,"byteStride" : 12
				,"target" : 34962
			},
			{
				"buffer": 1
				,"byteOffset" : 1424016
				,"byteLength" : 1424016
				,"byteStride" : 12
				,"target" : 34962
			},
			{
				"buffer": 1
				,"byteOffset" : 2848032
				,"byteLength" : 949344
				,"byteStride" : 8
				,"target" : 34962
			},
			{
				"buffer": 1
				,"byteOffset" : 3797376
				,"byteLength" : 237336
				,"target" : 34963
			}
	],
	"buffers" : [
			{
				"byteLength": 4025736
				,"uri" : "Marco_inferior_1.SLDPRT.bin"
			},
			{
				"byteLength": 4034712
				,"uri" : "Marco_inferior_1.SLDPRT-1.bin"
			}
	]
}
